<svg xmlns="http://www.w3.org/2000/svg" width="709" height="523" viewBox="0 0 709 523">
  <g id="Portfolio" transform="translate(-983 -463)">
    <rect id="矩形_413" data-name="矩形 413" width="179" height="77" transform="translate(983 463)" fill="#939393"/>
    <rect id="矩形_414" data-name="矩形 414" width="281" height="77" transform="translate(1168 463)" fill="#939393"/>
    <rect id="矩形_415" data-name="矩形 415" width="238" height="77" transform="translate(1454 463)" fill="#939393"/>
    <text id="Membrane_Name" data-name="Membrane Name" transform="translate(995 506)" fill="#fff" font-size="15" font-family="Helvetica-Bold, Helvetica" font-weight="700"><tspan x="0" y="0">Membrane Name</tspan></text>
    <text id="Lead_Application_Market" data-name="Lead Application / Market" transform="translate(1179 505)" fill="#fff" font-size="14" font-family="Helvetica-Bold, Helvetica" font-weight="700"><tspan x="0" y="0">Lead Application / Market</tspan></text>
    <text id="Value" transform="translate(1466 506)" fill="#fff" font-size="15" font-family="Helvetica-Bold, Helvetica" font-weight="700"><tspan x="0" y="0">Value</tspan></text>
    <rect id="矩形_398" data-name="矩形 398" width="179" height="81" transform="translate(983 549)" fill="#f4f4f4"/>
    <rect id="矩形_403" data-name="矩形 403" width="281" height="81" transform="translate(1168 549)" fill="#f4f4f4"/>
    <rect id="矩形_408" data-name="矩形 408" width="238" height="81" transform="translate(1454 549)" fill="#f4f4f4"/>
    <text id="M735.18" transform="translate(995 596)" fill="#333" font-size="16" font-family="Helvetica"><tspan x="0" y="0">M735.18</tspan></text>
    <text id="Automotive" transform="translate(1179 584)" fill="#333" font-size="16" font-family="Helvetica"><tspan x="0" y="12">Automotive</tspan></text>
    <text id="_Durable_Low_gas_permeance" data-name="• Durable
• Low gas permeance" transform="translate(1466 574)" fill="#333" font-size="16" font-family="Helvetica"><tspan x="0" y="12">• Durable</tspan><tspan x="0" y="31">• Low gas permeance</tspan></text>
    <rect id="矩形_402" data-name="矩形 402" width="179" height="81" transform="translate(983 905)" fill="#f4f4f4"/>
    <rect id="矩形_407" data-name="矩形 407" width="281" height="81" transform="translate(1168 905)" fill="#f4f4f4"/>
    <rect id="矩形_412" data-name="矩形 412" width="238" height="81" transform="translate(1454 905)" fill="#f4f4f4"/>
    <text id="M765.08" transform="translate(995 953)" fill="#333" font-size="16" font-family="Helvetica"><tspan x="0" y="0">M765.08</tspan></text>
    <text id="_High-power_density_under_dry_condition_Cost-effective" data-name="• High-power density under  
   dry condition
• Cost-effective" transform="translate(1466 922)" fill="#333" font-size="16" font-family="Helvetica"><tspan x="0" y="12" xml:space="preserve">• High-power density under  </tspan><tspan x="0" y="31" xml:space="preserve">   dry condition</tspan><tspan x="0" y="50">• Cost-effective</tspan></text>
    <text id="Passenger_vehicle" data-name="Passenger vehicle" transform="translate(1179 941)" fill="#333" font-size="16" font-family="Helvetica"><tspan x="0" y="12">Passenger vehicle</tspan></text>
    <rect id="矩形_399" data-name="矩形 399" width="179" height="80" transform="translate(983 638)" fill="#f4f4f4"/>
    <rect id="矩形_404" data-name="矩形 404" width="281" height="80" transform="translate(1168 638)" fill="#f4f4f4"/>
    <rect id="矩形_409" data-name="矩形 409" width="238" height="80" transform="translate(1454 638)" fill="#f4f4f4"/>
    <text id="M740.18" transform="translate(995 685)" fill="#333" font-size="16" font-family="Helvetica"><tspan x="0" y="0">M740.18</tspan></text>
    <text id="_High_chemical_durability_Low_gas_permeance" data-name="• High chemical durability
• Low gas permeance" transform="translate(1466 663)" fill="#333" font-size="16" font-family="Helvetica"><tspan x="0" y="12">• High chemical durability</tspan><tspan x="0" y="31">• Low gas permeance</tspan></text>
    <text id="Stationary_power_generation_Chemically_demanding_automotive_" data-name="Stationary power generation
(Chemically demanding automotive)" transform="translate(1179 663)" fill="#333" font-size="16" font-family="Helvetica"><tspan x="0" y="12">Stationary power generation</tspan><tspan x="0" y="31">(Chemically demanding automotive)</tspan></text>
    <rect id="矩形_400" data-name="矩形 400" width="179" height="82" transform="translate(983 727)" fill="#f4f4f4"/>
    <rect id="矩形_405" data-name="矩形 405" width="281" height="82" transform="translate(1168 727)" fill="#f4f4f4"/>
    <rect id="矩形_410" data-name="矩形 410" width="238" height="82" transform="translate(1454 727)" fill="#f4f4f4"/>
    <text id="M775.15" transform="translate(995 775)" fill="#333" font-size="16" font-family="Helvetica"><tspan x="0" y="0">M775.15</tspan></text>
    <text id="_High_chemical_durability_Low_gas_permeance-2" data-name="• High chemical durability
• Low gas permeance" transform="translate(1466 753)" fill="#333" font-size="16" font-family="Helvetica"><tspan x="0" y="12">• High chemical durability</tspan><tspan x="0" y="31">• Low gas permeance</tspan></text>
    <text id="Commercial_vehicle_and_other_heavy-duty_applications" data-name="Commercial vehicle and other heavy-duty applications" transform="translate(1179 753)" fill="#333" font-size="16" font-family="Helvetica"><tspan x="0" y="12">Commercial vehicle and other </tspan><tspan x="0" y="31">heavy-duty applications</tspan></text>
    <rect id="矩形_401" data-name="矩形 401" width="179" height="81" transform="translate(983 816)" fill="#f4f4f4"/>
    <rect id="矩形_406" data-name="矩形 406" width="281" height="81" transform="translate(1168 816)" fill="#f4f4f4"/>
    <rect id="矩形_411" data-name="矩形 411" width="238" height="81" transform="translate(1454 816)" fill="#f4f4f4"/>
    <text id="M788.12" transform="translate(995 864)" fill="#333" font-size="16" font-family="Helvetica"><tspan x="0" y="0">M788.12</tspan></text>
    <text id="_High_chemical_durability_Low_gas_permeance_Cost-effective" data-name="• High chemical durability
• Low gas permeance
• Cost-effective" transform="translate(1466 833)" fill="#333" font-size="16" font-family="Helvetica"><tspan x="0" y="12">• High chemical durability</tspan><tspan x="0" y="31">• Low gas permeance</tspan><tspan x="0" y="50">• Cost-effective</tspan></text>
    <text id="Automotive_back-up_power_range_extender_fork-lift_and_portable" data-name="Automotive, back-up power, range extender, fork-lift and portable" transform="translate(1179 843)" fill="#333" font-size="16" font-family="Helvetica"><tspan x="0" y="12">Automotive, back-up power, range </tspan><tspan x="0" y="31">extender, fork-lift and portable</tspan></text>
  </g>
</svg>
